# xmcd
#
# Track frame offsets: 
#        150
#        26160
#        46212
#        63002
#        84312
#        107612
#        138870
#        165040
#        186092
#        212532
#        244565
#        262630
#        282905
#
# Disc length: 4045 seconds
#
# Revision: 0
# Processed by: cddbd v1.5.1PL0 Copyright (c) Steve Scherf et al.
# Submitted via: ExactAudioCopy v0.95a5
#
DISCID=970fcb0d
DTITLE=Courtney, Tomcat - 12 O'clock Midnight
DYEAR=1996
DGENRE=Blues
TTITLE0=12 O'Clock Midnight
TTITLE1=I've Got Your Hanger
TTITLE2=Mocking Bird
TTITLE3=Key to the Highway
TTITLE4=Strawberry Girl
TTITLE5=Mourning Tears
TTITLE6=Big Fat Mama
TTITLE7=Wish Is Magic
TTITLE8=Let's Talk It Over
TTITLE9=Things Ain't the Same
TTITLE10=Pain of Love
TTITLE11=Four Wheel Drive
TTITLE12=The Moon is Rising
EXTD=
EXTT0=
EXTT1=
EXTT2=
EXTT3=
EXTT4=
EXTT5=
EXTT6=
EXTT7=
EXTT8=
EXTT9=
EXTT10=
EXTT11=
EXTT12=
PLAYORDER=
